<svg width="1280" height="1471" viewBox="0 0 1280 1471" fill="none" xmlns="http://www.w3.org/2000/svg">
<g clip-path="url(#clip0_1_291)">
<path d="M1176.63 19.487C1198.02 5.9333 1227.38 -0.196801 1244.8 16.1126C1252.44 23.3675 1256 33.4625 1257.93 44.2324C1232.72 48.3379 1214.66 73.73 1205.53 89.8145C1192.2 113.351 1189.82 132.416 1198.5 146.448C1200.88 150.674 1204.73 153.868 1209.31 155.418C1210.75 155.819 1212.24 156.018 1213.74 156.008C1216.18 155.968 1218.6 155.579 1220.93 154.855C1237.57 150.047 1251.91 135.678 1259.22 116.444C1266.05 98.4191 1266.42 79.0165 1265.91 62.4259C1265.77 58.3204 1265.55 53.9899 1265.1 49.8563C1266.05 49.8563 1267.03 49.8563 1268.04 49.9969C1272.15 50.33 1276.19 51.2778 1280.03 52.8089V46.1727C1276.32 44.8596 1272.46 44.0281 1268.55 43.6981C1267.09 43.6981 1265.74 43.5294 1264.26 43.5294C1262.3 31.5785 1258.13 20.0213 1249.14 11.501C1240.65 3.77017 1229.5 -0.352769 1218.05 3.72827e-05H1217.21C1201.57 0.645479 1186.39 5.50169 1173.27 14.0599C1152.55 27.3917 1135.26 45.4373 1122.78 66.7335C1110.31 88.0297 1103.02 111.977 1101.48 136.634L1107.76 136.971C1109.25 113.337 1116.27 90.388 1128.23 69.9787C1140.19 49.5695 1156.77 32.2729 1176.63 19.487ZM1259.58 62.6227C1260.11 78.5947 1259.78 97.21 1253.34 114.054C1246.7 131.46 1233.96 144.395 1219.2 148.669C1216.57 149.605 1213.74 149.799 1211.02 149.231C1207.98 148.071 1205.44 145.871 1203.85 143.017C1196.48 131.066 1198.89 114.194 1210.99 92.8514C1219.39 77.8636 1236.2 54.1587 1258.77 50.3906C1259.22 54.4961 1259.44 58.6297 1259.58 62.6227ZM692.583 149.231C700.206 149.318 707.725 147.45 714.428 143.804C725.631 137.534 732.157 127.326 738.57 117.316C762.908 79.2977 791.447 41.3923 835.194 22.4115L832.674 16.6188C787.386 36.3026 758.147 75.0516 733.193 114.026C727.284 123.249 721.178 132.781 711.348 138.265C691.743 149.147 663.736 139.249 651.385 123.108C640.518 108.739 637.185 88.7459 641.526 63.7194C642.871 55.9864 644.747 48.141 646.596 40.5487C650.218 27.3916 652.581 13.9174 653.653 0.309354L647.38 3.72827e-05C646.3 13.2086 643.984 26.2858 640.462 39.0584C638.614 46.735 636.681 54.6929 635.309 62.6227C630.66 89.4771 634.385 111.101 646.372 126.933C651.984 133.813 659.031 139.375 667.014 143.227C674.998 147.08 683.726 149.129 692.583 149.231ZM1279.92 275.236L1278.29 269.134C1245.64 277.964 1222.78 305.69 1200.66 332.516C1197.86 335.975 1195.06 339.405 1192.25 342.78C1160.05 381.107 1129.27 397.782 1100.78 392.439C1093.78 390.847 1086.93 388.636 1080.31 385.831C1070.65 382.035 1060.71 378.126 1049.92 378.042H1049.64C1026.73 378.042 1004.83 395.757 990.829 425.508C986.369 435.388 982.406 445.486 978.954 455.765C973.94 469.825 968.731 484.531 960.973 497.298C948.23 518.162 923.836 535.006 901.795 526.908L899.61 532.841C904.032 534.47 908.707 535.299 913.418 535.287C934.311 535.287 954.812 519.484 966.351 500.588C974.445 487.287 979.766 472.327 984.891 457.874C988.392 447.976 992.033 437.74 996.514 428.207C1006.51 406.977 1025.73 384.369 1049.73 384.369H1049.95C1059.53 384.369 1068.55 387.968 1078.13 391.708C1085.09 394.699 1092.32 397.025 1099.72 398.654C1130.53 404.474 1163.38 387.04 1197.16 346.885C1199.96 343.483 1202.76 340.024 1205.73 336.565C1227.21 310.498 1249.39 283.56 1280.11 275.236H1279.92ZM1195.9 598.135C1182.77 599.982 1170.52 605.786 1160.75 614.779C1150.99 623.772 1144.17 635.53 1141.21 648.497C1138.25 661.464 1139.28 675.029 1144.16 687.396C1149.04 699.764 1157.55 710.351 1168.56 717.756L1172.12 712.526C1162.16 705.836 1154.47 696.268 1150.05 685.089C1145.63 673.909 1144.7 661.646 1147.38 649.923C1150.05 638.2 1156.22 627.571 1165.05 619.442C1173.88 611.314 1184.96 606.07 1196.82 604.406C1216.26 601.453 1231.91 611.295 1248.52 621.699C1258.6 628.026 1268.88 634.409 1280.14 637.924V631.288C1270.18 627.383 1260.69 622.365 1251.85 616.328C1234.88 605.784 1217.43 594.845 1195.9 598.135ZM1196.29 770.284C1175.57 783.622 1158.28 801.673 1145.81 822.974C1133.33 844.274 1126.04 868.226 1124.51 892.886L1130.78 893.224C1132.26 869.571 1139.27 846.601 1151.23 826.172C1163.2 805.742 1179.78 788.427 1199.65 775.627C1221.05 762.101 1250.4 755.802 1267.82 772.281C1274.24 778.815 1278.53 787.148 1280.14 796.182V778.045C1278.02 774.194 1275.31 770.695 1272.13 767.669C1252.13 748.885 1219.59 755.437 1196.15 770.284H1196.29ZM1002.2 322.674L1000.83 328.86C1010.9 331.495 1021.23 333.004 1031.63 333.36C1039.23 333.512 1046.76 332.026 1053.73 329.001C1068.66 322.224 1079.89 307.039 1088.07 282.66C1089.22 279.201 1090.31 275.714 1091.4 272.199C1095.85 257.914 1100.45 243.123 1109.75 231.707C1126.75 210.729 1158.93 202.462 1195.9 209.689C1210.78 212.916 1225.45 217.077 1239.81 222.146C1252.97 226.742 1266.36 230.675 1279.92 233.928V227.432C1266.95 224.621 1254.15 220.29 1241.69 216.185C1227.03 211.016 1212.06 206.771 1196.88 203.474C1157.67 195.854 1123.3 204.909 1104.7 227.714C1094.65 240.058 1089.86 255.44 1085.1 270.315C1084.04 273.774 1082.94 277.233 1081.82 280.635C1074.23 303.131 1064.09 317.191 1050.85 323.236C1036.76 329.76 1020.4 326.836 1002.06 322.674H1002.2ZM1257.51 502.331C1256.04 507.153 1255.69 512.246 1256.48 517.226C1257.26 522.205 1259.17 526.939 1262.05 531.069C1266.97 537.433 1273.11 542.74 1280.11 546.676V539.168C1275.11 536.084 1270.73 532.099 1267.17 527.414C1264.83 524.048 1263.3 520.19 1262.67 516.134C1262.05 512.078 1262.37 507.934 1263.59 504.018C1266.42 494.724 1272.23 486.628 1280.11 480.988V473.34C1269.27 479.868 1261.22 490.196 1257.51 502.331ZM801.586 143.158C792.708 149.119 787.05 157.836 781.981 165.653L761.144 197.71L766.409 201.169L787.246 169.112C792.148 161.576 797.189 153.815 805.031 148.557C822.703 136.662 849.058 141.33 867.374 151.369C878.469 157.831 888.942 165.315 898.658 173.724C905.576 179.348 912.661 185.169 920.391 190.314C929.073 196.163 948.818 207.552 970.58 207.552C976.497 207.536 982.376 206.587 988 204.74C996.542 201.928 1002.9 197.288 1005.92 191.467C1007.93 187.187 1008.78 182.459 1008.42 177.745C1007.77 155.446 995.45 133.738 975.509 119.706C971.644 116.894 967.471 114.532 963.438 112.113C954.42 106.799 945.906 101.765 940.668 94.3136C938.333 90.9468 936.794 87.0895 936.168 83.0352C935.542 78.9809 935.845 74.8367 937.055 70.918C939.06 64.5853 942.406 58.763 946.863 53.8509C951.321 48.9389 956.784 45.0533 962.878 42.4608C989.624 30.763 1020.26 38.8334 1036.14 44.6823L1038.33 38.749C1021.52 32.5627 989.092 24.0987 960.357 36.6682C953.407 39.6365 947.183 44.086 942.115 49.7085C937.047 55.3309 933.256 61.9921 931.006 69.2308C929.544 74.0516 929.191 79.1424 929.972 84.1202C930.753 89.098 932.648 93.8331 935.515 97.9692C941.564 106.405 951.059 112.029 960.217 117.653C964.166 119.987 968.227 122.405 971.896 124.992C990.296 137.787 1001.61 157.471 1002.2 177.829C1002.51 181.456 1001.91 185.104 1000.43 188.43C998.166 192.761 993.097 196.388 986.179 198.61C960.721 206.793 934.199 191.692 923.976 184.803C916.554 179.798 909.525 174.089 902.719 168.55C892.697 159.896 881.896 152.196 870.455 145.548C850.486 134.722 821.443 129.801 801.586 143.158ZM949.434 290.421C950.751 272.902 945.205 258.308 934.619 251.362L931.174 256.649C939.8 262.273 944.281 274.758 943.161 289.971C942.168 307.406 934.762 323.851 922.38 336.115C909.497 348.151 891.04 353.24 875.44 349.107C864.405 346.295 854.519 338.955 844.969 331.954C832.982 323.18 820.575 314.098 805.367 312.86C803.91 312.86 802.566 312.692 801.082 312.72C799.121 300.741 794.948 289.183 785.958 280.691C766.101 261.907 733.557 268.459 710.115 283.306C689.403 296.642 672.111 314.688 659.64 335.983C647.169 357.279 639.87 381.225 638.334 405.88L644.607 406.246C646.086 382.592 653.091 359.621 665.055 339.191C677.02 318.76 693.608 301.446 713.476 288.649C734.873 275.124 764.225 268.825 781.645 285.275C789.291 292.53 792.848 302.625 794.78 313.395C769.574 317.5 751.51 342.892 742.379 358.977C729.048 382.513 726.667 401.578 735.35 415.638C737.74 419.854 741.586 423.045 746.16 424.608C747.602 425 749.091 425.19 750.585 425.171C753.027 425.13 755.45 424.742 757.783 424.018C774.419 419.209 788.759 404.868 796.068 385.606C802.902 367.694 803.266 348.319 802.734 331.701C802.594 327.595 802.37 323.265 801.922 319.159C802.874 319.159 803.854 319.159 804.723 319.159C818.166 320.284 829.313 328.439 841.132 337.071C851.158 344.411 861.521 351.975 873.704 355.209C891.376 359.905 912.129 354.224 926.553 340.727C940.158 327.407 948.318 309.467 949.434 290.421ZM790.187 383.216C783.549 400.622 770.806 413.557 756.047 417.803C753.426 418.753 750.594 418.948 747.869 418.366C744.823 417.221 742.288 415.016 740.727 412.151C733.333 400.228 735.742 383.328 747.841 361.985C756.243 346.998 773.047 323.321 795.62 319.525C796.068 323.63 796.293 327.764 796.433 331.785C796.825 347.785 796.517 366.372 790.075 383.244L790.187 383.216ZM251.222 212.023L257.384 213.373C264.077 183.031 300.346 169.562 321.379 164.219C332.582 161.407 344.513 159.102 355.576 161.829C365.098 164.163 375.853 171.896 376.945 183.313C377.729 191.552 373.444 199.172 368.907 207.271C367.255 210.251 365.518 213.345 364.062 216.466C362.019 220.678 360.871 225.271 360.693 229.952C360.514 234.634 361.309 239.301 363.026 243.658C364.004 245.954 365.491 247.996 367.375 249.629C369.258 251.261 371.487 252.441 373.892 253.078C379.998 254.652 386.019 252.543 391.621 250.013C416.659 238.765 439.036 221.106 460.714 204.065C493.622 178.167 524.71 153.731 564.031 149.794C582.796 147.91 599.936 151.79 612.315 160.732C626.459 170.968 633.852 188.599 630.296 203.615C625.983 221.809 608.422 232.297 598.34 236.937C590.236 240.431 581.931 243.436 573.47 245.935C565.789 248.215 558.227 250.88 550.812 253.921C520.172 266.969 491.997 299.363 500.4 333.697C502.236 340.431 504.77 346.953 507.961 353.156C510.475 358.162 512.609 363.35 514.347 368.678C517.282 378.436 517.434 388.825 514.786 398.666C512.137 408.507 506.794 417.405 499.363 424.35C491.932 431.296 482.711 436.011 472.745 437.96C462.78 439.91 452.47 439.015 442.985 435.378C429.738 430.316 419.292 420.587 408.257 410.267C398.594 401.269 388.652 391.933 376.497 386C346.614 371.321 306.928 383.188 291.552 411.448C287.707 418.998 285.526 427.292 285.159 435.764C284.792 444.236 286.246 452.688 289.423 460.545C292.085 467.972 296.331 474.725 301.866 480.331C307.401 485.936 314.089 490.259 321.463 492.995C331.329 495.831 341.509 497.418 351.767 497.719C369.215 498.985 385.711 500.194 394.225 513.185C398.594 519.822 400.023 529.045 398.65 541.305C395.658 567.434 384.273 591.874 366.218 610.93C359.628 617.599 352.701 623.925 345.465 629.882C327.625 645.123 309.056 660.814 304.379 684.21C301.13 700.041 306.564 717.419 318.915 730.692C323.874 736.237 329.911 740.704 336.654 743.818C343.397 746.932 350.704 748.628 358.124 748.801C360.158 748.801 362.188 748.66 364.202 748.379C396.102 743.992 416.127 713.06 428.394 690.171C429.486 688.174 430.55 686.178 431.615 684.153C444.218 660.392 457.269 635.815 480.431 624.596C496.843 616.638 515.131 616.75 534.484 616.891C542.886 616.891 551.288 616.891 559.69 616.385C580.863 614.754 599.32 608.314 612.903 597.769C629.287 585.2 639.118 565.91 638.53 547.491C637.885 527.076 625.534 507.027 600.804 486.218C587.193 474.802 574.73 471.709 565.684 477.529L569.073 482.844C577.895 477.22 590.19 485.656 596.743 491.083C620.045 510.767 631.64 529.157 632.228 547.688C632.76 564.11 623.826 581.432 609.066 592.68C596.323 602.465 579.015 608.455 559.074 609.973C551.008 610.592 542.578 610.536 534.428 610.48C515.215 610.339 495.218 610.198 477.602 618.916C452.564 631.063 439.036 656.54 425.929 681.201L422.904 687.218C411.282 708.899 392.461 738.171 363.418 742.164C349.414 744.076 334.627 738.199 323.648 726.417C312.669 714.635 307.852 699.366 310.681 685.531C315.022 664.357 331.882 649.988 349.694 634.747C357.099 628.651 364.185 622.175 370.924 615.344C389.925 595.301 401.901 569.584 405.036 542.092C406.604 528.173 404.84 517.572 399.631 509.642C389.408 494.064 370.559 492.77 352.355 491.364C342.593 491.066 332.905 489.564 323.508 486.893C316.997 484.457 311.095 480.62 306.218 475.65C301.341 470.681 297.607 464.7 295.277 458.127C292.436 451.129 291.129 443.6 291.443 436.051C291.757 428.501 293.686 421.108 297.097 414.373C310.905 389.065 346.726 378.295 373.724 391.567C384.927 397.191 394.645 406.105 403.972 414.794C414.978 425.058 426.377 435.659 440.745 441.171C451.329 445.22 462.832 446.211 473.949 444.033C485.066 441.854 495.353 436.593 503.644 428.845C511.935 421.097 517.899 411.172 520.86 400.195C523.821 389.218 523.66 377.628 520.396 366.738C518.549 361.115 516.293 355.635 513.647 350.344C510.647 344.524 508.254 338.408 506.505 332.094C500.904 309.008 515.579 275.855 553.417 259.63C560.53 256.593 568.148 254.174 575.486 251.869C584.201 249.298 592.75 246.189 601.084 242.561C612.287 237.471 631.612 225.689 636.569 204.965C640.714 187.531 632.312 167.172 616.124 155.474C602.513 145.632 583.832 141.414 563.527 143.383C522.385 147.488 489.141 173.668 457.101 198.975C435.732 215.847 413.634 233.141 389.324 244.136C384.759 246.188 379.97 247.932 375.741 246.948C374.247 246.551 372.863 245.814 371.698 244.795C370.533 243.776 369.616 242.502 369.019 241.071C367.702 237.555 367.112 233.808 367.285 230.056C367.459 226.304 368.392 222.627 370.027 219.25C371.4 216.438 373.08 213.373 374.676 210.476C379.494 202.04 384.479 193.042 383.499 182.835C382.126 168.325 368.963 158.652 357.34 155.783C344.933 152.746 332.134 155.137 320.119 158.202C297.405 163.769 258.644 178.364 251.222 212.023ZM435.648 144.254L438.28 138.63C396.69 119.34 373.864 73.5332 386.243 34.3342L380.25 32.4221C366.891 74.4892 391.201 123.727 435.648 144.254ZM712.916 1089.56C715.521 1087 718.097 1084.35 720.674 1081.68C732.633 1069.42 744.984 1056.71 761.564 1050.55C779.881 1043.75 802.594 1045.15 829.033 1054.69C836.735 1057.5 844.408 1060.73 851.83 1063.88C865.591 1070.2 879.885 1075.27 894.541 1079.04C916.162 1083.96 946.018 1083.26 964.978 1066.5L960.805 1061.75C943.637 1076.93 915.994 1077.46 895.941 1072.99C881.622 1069.25 867.658 1064.26 854.211 1058.06C846.705 1054.88 838.947 1051.59 831.077 1048.75C803.07 1038.69 779.04 1037.28 759.267 1044.62C741.399 1051.28 728.46 1064.5 716.081 1077.27C713.532 1079.88 710.984 1082.5 708.407 1085.06C689.25 1103.95 670.766 1112.75 653.485 1111.18L652.897 1117.48C654.41 1117.62 655.95 1117.68 657.462 1117.68C675.359 1117.68 693.983 1108.26 712.888 1089.56H712.916ZM650.993 851.072C646.517 849.404 642.663 846.389 639.958 842.439C630.464 829.757 629.987 814.32 629.483 798.038C629.035 783.557 628.587 768.625 621.473 755.268C618.377 748.925 613.303 743.771 607.022 740.59C590.946 733.025 571.117 742.839 561.959 756.281C557.167 763.977 553.489 772.318 551.036 781.054C549.406 786.39 547.451 791.621 545.183 796.717C539.917 807.965 528.098 820.843 512.471 820.056C497.403 819.297 486.928 805.996 483.175 792.977C480.677 782.858 479.417 772.47 479.422 762.045C479.17 755.887 478.89 749.504 478.134 743.233L471.888 743.992C472.617 750.01 472.869 756.281 473.121 762.326C473.133 773.302 474.468 784.236 477.098 794.889C481.467 809.989 493.902 825.596 512.134 826.524C530.927 827.395 544.763 812.464 550.868 799.557C553.231 794.227 555.279 788.763 557.002 783.191C559.265 775.027 562.669 767.226 567.112 760.02C574.87 748.773 591.646 740.505 604.305 746.467C609.357 749.072 613.427 753.257 615.9 758.39C622.286 770.425 622.706 784.007 623.154 798.376C623.686 814.938 624.218 832.119 634.889 846.376C638.332 851.355 643.223 855.146 648.892 857.23C651.368 858.047 653.96 858.455 656.566 858.44C660.89 858.338 665.15 857.367 669.095 855.585C673.039 853.803 676.588 851.245 679.532 848.063C686.449 840.387 688.97 830.77 690.734 821.546C692.891 809.764 694.039 797.617 695.16 785.891C697.512 760.78 699.753 737.018 711.068 715.057C713.868 709.433 721.85 696.498 734.761 696.92C740.172 697.326 745.313 699.454 749.437 702.994C761.872 712.948 768.118 728.892 768.454 751.725C768.454 756.505 768.454 761.398 768.258 766.151C767.894 779.985 767.529 794.27 771.871 807.965C777.752 826.524 795.844 845.195 819.23 844.773C834.942 844.548 850.85 835.325 861.717 820.112C866.863 812.507 871.315 804.451 875.02 796.042C877.513 790.812 880.061 785.441 882.974 780.379L877.513 777.202C874.488 782.488 871.911 788 869.335 793.314C865.795 801.386 861.54 809.122 856.619 816.429C846.873 830.01 832.87 838.25 819.118 838.446C798.869 838.699 783.045 822.39 777.864 806.052C773.859 793.342 774.195 780.238 774.559 766.319C774.699 761.511 774.811 756.534 774.755 751.613C774.391 727.12 767.193 709.096 753.358 698.044C748.186 693.614 741.716 690.998 734.929 690.593C718.545 690.171 708.855 705.524 705.466 712.161C693.591 735.219 691.183 760.667 688.886 785.272C687.766 796.857 686.646 808.864 684.545 820.365C683.005 828.801 680.792 837.237 674.939 843.789C669.645 849.554 659.703 853.997 650.965 851.072H650.993ZM158.211 192.508L161.74 187.278C158.688 185.077 156.183 182.199 154.42 178.868C152.656 175.537 151.682 171.842 151.573 168.072C151.22 162.458 152.101 156.836 154.153 151.602C156.205 146.368 159.378 141.652 163.448 137.787C179.244 123.727 203.19 122.068 219.994 122.068C223.215 122.068 226.436 122.068 229.685 122.208C242.904 122.433 256.571 122.715 269.791 119.396C284.83 115.797 302.895 105.337 308.524 87.3962L302.475 85.6246C297.629 101.175 281.638 110.145 268.278 113.379C255.871 116.36 242.596 116.191 229.769 115.881C226.52 115.881 223.243 115.741 219.994 115.741C202.098 115.741 176.584 117.428 159.191 133.175C154.418 137.675 150.69 143.174 148.27 149.283C145.85 155.391 144.798 161.959 145.188 168.522C145.351 173.261 146.612 177.898 148.873 182.062C151.134 186.226 154.331 189.802 158.211 192.508ZM1052.02 986.3L1056.22 990.996C1069.56 979.045 1092.24 954.3 1094.71 922.918C1095.36 915.362 1094.38 907.753 1091.82 900.616C1089.26 893.48 1085.19 886.986 1079.89 881.582C1076.34 878.018 1072.03 875.31 1067.29 873.664C1062.54 872.017 1057.48 871.475 1052.5 872.078C1042.14 873.399 1032.75 879.164 1023.65 884.731C1019.76 887.15 1015.73 889.624 1011.72 891.649C991.781 901.828 969.039 902.531 950.891 893.505C947.585 892.054 944.695 889.791 942.489 886.925C939.688 882.904 938.932 876.717 940.248 869.519C945.009 843.114 970.776 826.72 981.614 820.9C989.484 816.682 997.83 813.139 1005.9 809.652C1018.23 804.855 1030.08 798.904 1041.3 791.88C1060.2 779.282 1078.18 755.859 1075.77 731.985C1074.68 721.299 1069.7 712.301 1065.3 704.175L1046.9 670.628L1041.3 673.693L1059.7 707.211C1063.81 714.719 1068.46 723.212 1069.42 732.519C1071.54 753.778 1055.05 774.952 1037.71 786.509C1026.82 793.302 1015.33 799.063 1003.38 803.719C995.17 807.205 986.572 810.805 978.562 815.191C966.911 821.434 939.352 839.121 933.947 868.253C932.35 877.083 933.526 884.956 937.195 890.355C940.025 894.141 943.777 897.133 948.09 899.044C968.031 908.943 992.901 908.24 1014.58 897.16C1018.78 894.995 1022.98 892.464 1026.93 890.018C1035.86 884.535 1044.29 879.361 1053.31 878.208C1057.37 877.72 1061.48 878.17 1065.33 879.525C1069.19 880.88 1072.68 883.104 1075.55 886.025C1080.18 890.771 1083.73 896.47 1085.96 902.728C1088.18 908.986 1089.03 915.654 1088.43 922.271C1086.14 951.6 1064.65 974.968 1052.02 986.3ZM1212.31 408.749C1129.81 451.241 1056.28 509.354 995.758 579.885C991.697 584.609 987.72 589.39 983.715 594.198C967.191 614.023 950.107 634.522 929.381 650.072C905.548 667.956 880.313 673.496 861.801 664.919C845.473 657.327 833.934 638.093 832.422 615.907C831.021 595.576 836.903 575.555 843.624 555.14L844.801 551.484C851.018 532.56 857.46 512.988 857.908 492.658C858.244 477.839 854.519 466.844 846.873 460.011C836.398 450.647 819.51 450.169 799.261 458.717C780.268 466.713 762.709 477.779 747.281 491.477L751.453 496.229C766.37 482.987 783.342 472.283 801.698 464.538C812.06 460.18 831.133 454.415 842.672 464.735C850.402 471.652 851.802 483.66 851.606 492.545C851.186 511.92 844.913 531.041 838.835 549.516L837.631 553.172C830.741 574.205 824.664 594.873 826.148 616.357C827.828 640.821 840.796 662.136 859.196 670.656C865.944 673.715 873.274 675.26 880.677 675.183C897.174 675.183 915.63 668.294 933.162 655.162C954.476 639.162 971.84 618.353 988.644 598.247C992.621 593.467 996.607 588.724 1000.6 584.019C1060.59 514.111 1133.48 456.505 1215.25 414.373L1212.31 408.749ZM872.499 900.057C859.14 942.236 883.478 991.446 927.897 1012.03L930.558 1006.41C888.939 987.115 866.142 941.308 878.493 902.109L872.499 900.057ZM56.9661 86.0464C74.6384 90.7424 95.3635 85.0623 109.815 71.5648C123.368 58.2198 131.485 40.2857 132.585 21.2586C133.221 14.0973 132.479 6.88006 130.4 3.72827e-05H123.707C126.073 6.65335 126.962 13.7459 126.311 20.7805C125.327 38.2239 117.909 54.6742 105.502 66.925C92.6189 78.9884 74.1903 84.0781 58.5625 79.9445C47.6118 76.9919 37.6693 69.7651 28.0069 62.7914C19.2688 56.2395 10.2225 49.7157 0 46.1727V52.8933C8.726 56.8523 16.9216 61.8972 24.394 67.9092C34.4205 75.2203 44.8111 82.8127 56.9661 86.0464ZM143.087 1239.52C165.661 1240.61 182.297 1222.79 189.523 1207.15C192.389 1200.7 194.867 1194.08 196.945 1187.33C200.277 1177.2 203.442 1167.64 209.324 1158.98C218.902 1144.92 239.683 1134.91 255.367 1142.31C261.636 1145.53 266.682 1150.73 269.735 1157.1C277.605 1171.86 278.137 1189.21 278.669 1205.97C279.285 1226.02 279.929 1246.74 292.672 1263.93C296.81 1269.88 302.679 1274.39 309.476 1276.86C312.421 1277.84 315.504 1278.34 318.607 1278.32C323.765 1278.19 328.846 1277.03 333.549 1274.9C338.253 1272.77 342.486 1269.72 345.997 1265.92C354.399 1256.73 357.2 1245.14 359.357 1234.03C361.961 1219.75 363.362 1205.02 364.706 1190.79C367.507 1161.51 370.307 1131.26 384.115 1104.43C387.644 1097.57 397.586 1081.49 413.522 1081.94C420.246 1082.45 426.632 1085.1 431.755 1089.5C447.074 1101.7 454.72 1121.25 455.112 1149.23C455.112 1155.02 455.112 1161.01 454.888 1166.77C454.468 1183.64 453.992 1200.83 459.257 1217.39C466.231 1239.49 487.712 1261.62 515.271 1261.62H516.055C534.96 1261.34 554.061 1250.23 567.168 1231.95C573.388 1222.72 578.778 1212.96 583.272 1202.77C586.297 1196.44 589.406 1189.89 592.962 1183.7C596.519 1177.51 600.664 1171.47 607.554 1168.26C619.653 1162.64 635.141 1168.46 645.167 1176.7C649.941 1180.84 654.423 1185.32 658.583 1190.08C663.583 1195.91 669.125 1201.25 675.135 1206.03C701.125 1225.54 751.762 1227.82 791.503 1197.87C823.823 1173.52 840.263 1137.58 854.743 1105.87L849.142 1103.22C834.942 1134.15 818.894 1169.42 787.834 1192.81C759.127 1214.46 709.415 1223.74 679.028 1200.97C673.343 1196.41 668.092 1191.34 663.344 1185.81C659.003 1180.81 654.324 1176.11 649.34 1171.75C637.801 1162.25 619.653 1155.67 605.061 1162.47C596.659 1166.41 591.506 1173.72 587.669 1180.49C583.832 1187.27 580.807 1193.54 577.755 1199.98C573.415 1209.8 568.213 1219.21 562.211 1228.1C550.28 1244.78 533.028 1254.9 516.139 1255.15H515.327C490.709 1255.15 471.524 1235.22 465.223 1215.31C460.294 1199.79 460.742 1183.03 461.162 1166.8C461.33 1160.98 461.498 1154.93 461.386 1148.97C460.966 1119.42 452.284 1097.68 435.648 1084.3C429.471 1079.02 421.757 1075.89 413.662 1075.38C394.057 1074.91 382.546 1093.3 378.485 1101.23C364.118 1129.15 361.205 1160.02 358.404 1189.89C357.06 1203.95 355.604 1218.57 353.111 1232.57C351.263 1242.78 348.518 1253.33 341.292 1261.37C334.711 1268.68 322.36 1274.19 311.437 1270.56C305.871 1268.48 301.079 1264.73 297.714 1259.82C286.063 1244.24 285.474 1225.4 284.858 1205.47C284.298 1187.97 283.738 1169.89 275.196 1153.81C271.501 1146.22 265.431 1140.06 257.916 1136.26C238.731 1127.21 214.981 1139.07 204.002 1155.1C197.645 1164.47 194.2 1174.93 190.839 1185.05C188.841 1191.55 186.456 1197.93 183.697 1204.14C177.2 1218.01 162.748 1233.89 143.283 1232.88C124.659 1231.95 111.692 1215.45 107.098 1199.5C103.57 1187.24 103.065 1174.79 102.533 1161.6C102.225 1154.09 101.889 1146.36 100.965 1138.77L94.7194 1139.52C95.6156 1146.89 95.9237 1154.48 96.2318 1161.85C96.7639 1174.84 97.296 1188.28 101.049 1201.22C106.426 1219.67 121.382 1238.42 143.087 1239.52ZM1103.16 1309.68C1092.89 1308.72 1082.54 1309.06 1072.36 1310.69C1054.96 1312.74 1038.55 1314.65 1027.74 1303.49C1022.14 1297.87 1019.09 1288.98 1018.14 1276.58C1016.21 1250.36 1022.84 1224.22 1037.01 1202.12C1042.22 1194.33 1047.83 1186.82 1053.82 1179.62C1068.52 1161.29 1083.73 1142.31 1084.06 1118.52C1084.29 1102.35 1075.66 1086.32 1061.1 1075.61C1046.53 1064.89 1028.67 1061.55 1013.49 1066.72C983.043 1076.99 969.039 1111.15 961.253 1136.04L959.237 1142.53C951.255 1168.23 943.021 1194.84 922.38 1210.25C907.76 1221.13 889.752 1224.45 870.707 1227.96C862.557 1229.45 854.127 1231 846.061 1233.19C825.588 1238.82 808.672 1248.54 797.133 1261.51C783.381 1276.95 777.332 1297.73 781.337 1315.69C785.79 1335.66 801.67 1353.04 829.845 1368.81C845.333 1377.47 858.16 1378.18 865.946 1370.75L861.633 1366.14C854.015 1373.37 840.375 1367.46 832.926 1363.33C806.403 1348.48 791.531 1332.4 787.498 1314.37C783.914 1298.34 789.431 1279.73 801.838 1265.78C812.565 1253.75 828.417 1244.61 847.713 1239.35C855.527 1237.24 863.817 1235.69 871.855 1234.23C890.76 1230.74 910.337 1227.15 926.133 1215.36C948.538 1198.74 956.94 1171.16 965.342 1144.45L967.359 1138.01C974.725 1114.53 987.748 1082.22 1015.56 1072.82C1028.89 1068.35 1044.57 1071.33 1057.57 1080.84C1070.56 1090.34 1078.13 1104.43 1077.93 1118.55C1077.62 1140.17 1063.76 1157.46 1049.08 1175.77C1042.95 1183.15 1037.2 1190.85 1031.86 1198.83C1016.91 1222.08 1009.94 1249.6 1012 1277.2C1013.07 1291.26 1016.76 1301.24 1023.37 1308.13C1036.31 1321.52 1055.08 1319.38 1073.22 1317.21C1082.86 1315.66 1092.66 1315.31 1102.38 1316.17C1109.23 1317.34 1115.75 1320 1121.46 1323.96C1127.18 1327.93 1131.97 1333.1 1135.48 1339.12C1139.58 1345.45 1142.28 1352.6 1143.38 1360.07C1144.48 1367.54 1143.97 1375.17 1141.87 1382.42C1133.02 1409.98 1099.86 1427.22 1070.82 1419.26C1058.72 1415.94 1047.57 1408.91 1036.79 1402.11C1024.07 1394.09 1010.94 1385.83 995.758 1383.13C984.6 1381.12 973.107 1382.3 962.583 1386.53C952.059 1390.75 942.925 1397.86 936.218 1407.03C929.511 1416.2 925.498 1427.08 924.637 1438.43C923.775 1449.77 926.098 1461.14 931.342 1471.22L936.943 1468.41C932.155 1459.37 929.999 1449.16 930.72 1438.95C931.441 1428.73 935.011 1418.93 941.021 1410.65C947.031 1402.38 955.239 1395.97 964.706 1392.17C974.173 1388.36 984.516 1387.3 994.553 1389.12C1008.56 1391.62 1020.57 1399.21 1033.32 1407.25C1044.52 1414.28 1056.06 1421.57 1069.05 1425.14C1101.15 1433.94 1137.92 1414.76 1147.75 1384.14C1150.12 1376 1150.72 1367.45 1149.5 1359.06C1148.28 1350.67 1145.28 1342.64 1140.69 1335.52C1136.69 1328.72 1131.26 1322.89 1124.78 1318.43C1118.3 1313.96 1110.92 1310.98 1103.16 1309.68ZM671.018 1357.71C646.232 1339.74 607.526 1318.34 563.415 1319.04C530.731 1319.49 499.643 1331.72 469.564 1343.56C431.923 1358.41 396.354 1372.41 358.573 1364.71C338.744 1360.66 320.987 1350.65 303.791 1340.97C286.595 1331.3 268.922 1321.29 248.785 1316.9C205.515 1307.31 155.746 1328.38 137.878 1363.86L143.479 1366.68C160.284 1333.61 206.775 1314.04 247.441 1323.03C266.654 1327.28 283.85 1337.09 300.654 1346.46C318.271 1356.36 336.475 1366.59 357.256 1370.84C396.886 1378.94 434.975 1363.92 471.804 1349.41C501.352 1337.77 531.907 1325.73 563.443 1325.31C605.706 1324.83 643.263 1345.36 667.293 1362.77C707.371 1391.81 734.229 1428.2 742.911 1465.24L749.045 1463.8C740.055 1425.33 712.356 1387.62 671.018 1357.71ZM194.368 405.346C208.737 405.346 222.783 401.068 234.73 393.053C246.677 385.038 255.989 373.646 261.488 360.317C266.986 346.989 268.425 332.323 265.622 318.173C262.819 304.024 255.9 291.026 245.739 280.825C235.579 270.624 222.634 263.677 208.541 260.862C194.449 258.048 179.841 259.492 166.566 265.013C153.291 270.534 141.945 279.883 133.962 291.879C125.979 303.874 121.718 317.977 121.718 332.404C121.762 351.735 129.431 370.263 143.046 383.932C156.661 397.602 175.114 405.302 194.368 405.346ZM194.368 265.788C207.49 265.788 220.318 269.695 231.229 277.015C242.14 284.334 250.644 294.738 255.666 306.911C260.688 319.083 262.002 332.477 259.441 345.4C256.881 358.322 250.562 370.191 241.283 379.508C232.004 388.824 220.182 395.169 207.312 397.739C194.442 400.31 181.101 398.99 168.978 393.948C156.854 388.906 146.492 380.368 139.201 369.413C131.911 358.458 128.02 345.579 128.02 332.404C128.042 314.743 135.039 297.812 147.477 285.324C159.915 272.836 176.778 265.81 194.368 265.788ZM1228.41 845.87C1215.08 869.378 1212.7 888.584 1221.38 902.644C1223.77 906.86 1227.62 910.051 1232.19 911.614C1233.63 912.015 1235.12 912.214 1236.62 912.204C1239.06 912.156 1241.48 911.758 1243.81 911.023C1258.99 906.665 1272.24 894.292 1280 877.561V857.343C1279.08 861.776 1277.82 866.129 1276.22 870.362C1269.61 887.768 1256.84 900.703 1242.08 904.95C1239.46 905.9 1236.63 906.094 1233.9 905.512C1230.85 904.368 1228.32 902.162 1226.76 899.297C1219.36 887.375 1221.77 870.503 1233.9 849.132C1242.16 834.51 1258.32 811.676 1280 806.952V800.485C1255.27 804.956 1237.43 829.954 1228.41 845.87ZM235.902 499.8L123.37 455.793L121.074 461.698L233.634 505.705L235.902 499.8ZM424.109 938.89C449.315 942.658 472.841 955.396 495.47 967.741L504.713 972.746C542.858 993.246 600.468 1020.07 660.291 1016.44C720.87 1012.79 772.683 975.305 786.322 925.308L780.245 923.621C765.849 976.514 708.827 1007.16 659.815 1010.15C631.976 1011.83 585.877 1009.22 507.597 967.15C504.517 965.519 501.464 963.832 498.383 962.173C475.277 949.576 451.387 936.556 424.949 932.619C376.385 925.421 332.75 950.504 305.723 971.621C296.841 963.537 286.497 957.237 275.252 953.062C232.149 937.119 184.818 954.918 143.031 970.609L136.17 973.196C76.2348 995.692 32.8801 995.692 3.69691 973.73L0 978.792C31.0317 1002.24 76.3468 1002.36 138.466 979.129L145.328 976.542C188.066 960.486 232.149 943.867 273.151 958.996C283.326 962.769 292.71 968.415 300.822 975.643C298.274 977.723 295.893 979.776 293.737 981.688C282.058 992.036 269.483 1004.89 264.525 1021.73C259.876 1037.45 263.853 1058.96 280.293 1067.9C284.603 1070.21 289.414 1071.41 294.297 1071.39C298.259 1071.37 302.189 1070.68 305.92 1069.34C311.175 1067.5 316.003 1064.6 320.105 1060.83C324.208 1057.05 327.501 1052.47 329.781 1047.38C336.699 1031.18 333.954 1010.4 322.472 991.755C318.982 986.109 314.908 980.85 310.317 976.064C336.531 955.79 378.093 932.057 424.109 938.89ZM317.178 995.13C327.569 1012 330.145 1030.59 324.04 1044.9C322.09 1049.18 319.303 1053.03 315.843 1056.21C312.384 1059.39 308.323 1061.83 303.903 1063.4C300.586 1064.69 297.037 1065.26 293.486 1065.08C289.936 1064.9 286.462 1063.98 283.29 1062.36C270.239 1055.28 266.486 1037.06 270.575 1023.53C275.056 1008.26 286.903 996.226 297.91 986.469C300.178 984.444 302.699 982.279 305.415 980.057C309.879 984.62 313.824 989.665 317.178 995.101V995.13ZM112.504 589.221C113.604 606.022 121.019 621.776 133.247 633.297C145.476 644.818 161.607 651.246 178.376 651.281C179.804 651.281 181.177 651.281 182.689 651.141C200.156 649.97 216.448 641.897 227.998 628.688C239.547 615.48 245.41 598.214 244.304 580.673L238.003 581.066C238.573 588.966 237.58 596.9 235.081 604.412C232.582 611.924 228.627 618.865 223.443 624.835C218.26 630.804 211.95 635.685 204.879 639.195C197.808 642.705 190.115 644.774 182.243 645.285C174.372 645.795 166.477 644.736 159.015 642.168C151.553 639.6 144.671 635.575 138.766 630.324C132.861 625.073 128.05 618.7 124.609 611.574C121.169 604.447 119.168 596.706 118.721 588.799L112.504 589.221ZM83.2926 668.322C99.5646 670.037 117.993 672.006 132.921 680.638C147.848 689.271 157.679 703.134 165.017 714.382C176.219 731.676 182.689 746.467 185.546 760.92C186.627 766.913 187.403 772.957 187.87 779.029C188.383 785.452 189.225 791.843 190.391 798.179C198.793 839.459 235.762 873.737 282.562 883.466C292.796 885.612 303.223 886.695 313.677 886.7C343.757 886.7 376.385 878.573 409.741 862.686L406.94 857.062C362.97 878.039 320.399 885.181 283.71 877.477C240.047 868.394 204.17 835.297 196.44 797.138C195.33 791.015 194.526 784.84 194.032 778.636C193.444 772.477 192.856 766.122 191.623 759.88C188.599 744.611 181.793 729.117 170.198 711.148C162.468 699.197 151.629 684.322 135.946 675.239C120.262 666.157 100.741 663.991 83.8527 662.107L83.2926 668.322ZM751.594 587.534L748.289 582.079C713.593 603.425 682.68 630.424 656.818 661.967L661.691 665.988C687.11 635.004 717.494 608.49 751.594 587.534ZM8.76616 818.594C8.76616 814.46 8.37407 810.158 7.92596 806.024C8.9062 806.024 9.88644 806.024 10.8947 806.024C24.338 807.149 35.4848 815.304 47.3037 823.937C57.3302 831.276 67.6927 838.868 79.8757 842.102C97.5481 846.77 118.273 841.09 132.725 827.62C146.269 814.269 154.384 796.339 155.494 777.314C156.839 759.88 151.237 745.173 140.651 738.34L137.234 743.627C145.86 749.251 150.341 761.764 149.221 776.948C148.237 794.392 140.818 810.842 128.412 823.093C115.529 835.128 97.1 840.218 81.4721 836.084C70.4654 833.272 60.579 825.933 51.0286 818.931C39.0416 810.158 26.6346 801.103 11.4268 799.838C9.97046 799.838 8.62613 799.669 7.11376 799.697C6.02278 792.118 3.61499 784.789 0 778.045L0 796.182C0.308076 797.532 0.560138 798.994 0.784194 800.26L0 800.428V807.037L1.65241 806.643C2.10052 810.748 2.32457 814.882 2.46461 818.903C3.16413 831.722 2.33674 844.58 0 857.202L0 877.336C0.756187 875.733 1.45636 874.074 2.10052 872.387C8.93421 854.559 9.2983 835.156 8.76616 818.594ZM39.6018 1119.17C39.5928 1105.72 35.8915 1092.54 28.9048 1081.07C21.9181 1069.6 11.9166 1060.29 0 1054.15L0 1061.35C10.1258 1067.19 18.5368 1075.62 24.3836 1085.77C30.2305 1095.92 33.3062 1107.44 33.3002 1119.17C33.2767 1130.86 30.187 1142.35 24.3416 1152.47C18.4962 1162.59 10.1011 1170.98 0 1176.81L0 1184.01C11.8913 1177.89 21.8761 1168.6 28.8611 1157.17C35.8461 1145.73 39.562 1132.58 39.6018 1119.17ZM21.5093 1272.28C21.0007 1267.82 18.9251 1263.69 15.6559 1260.64C11.9431 1257.94 7.54267 1256.36 2.96873 1256.08L0 1255.66V1262.04L2.07251 1262.35C5.45303 1262.48 8.73493 1263.53 11.5669 1265.39C13.6803 1267.51 14.9965 1270.3 15.2918 1273.29C17.7844 1288.17 8.40207 1301.1 0 1309.4V1318.03C16.104 1304.28 24.0579 1287.6 21.5093 1272.28ZM34.4205 637.84C42.8226 635.028 49.2922 630.388 52.3169 624.596C54.3133 620.304 55.1811 615.57 54.8375 610.845C54.1654 588.546 41.8423 566.838 21.9014 552.806C18.0365 549.994 13.8634 547.632 9.83043 545.242C6.41358 543.217 3.10877 541.249 0 539.168V546.676C2.18454 548.054 4.39709 549.488 6.60963 550.669C10.5586 553.003 14.6196 555.421 18.2885 558.008C36.605 570.887 47.9198 590.711 48.536 611.042C48.8286 614.67 48.2124 618.315 46.7435 621.643C44.475 625.974 39.4057 629.601 32.488 631.822C21.9088 635.329 10.4592 635.141 0 631.288L0 637.924C11.1901 641.574 23.2482 641.545 34.4205 637.84ZM82.5364 477.783L84.7209 471.849C67.9168 465.663 35.5128 457.199 6.74967 469.768C4.42609 470.813 2.17158 472.006 0 473.34L0 480.988C2.87137 478.834 5.98233 477.022 9.27029 475.589C36.0169 463.976 66.6565 471.934 82.5364 477.783ZM77.7472 223.299L73.8822 218.265C54.5855 233.169 28.483 232.578 9.97046 229.513C6.63764 228.951 3.30482 228.248 0 227.489V233.984C2.96873 234.631 5.93747 235.25 8.93421 235.756C28.6511 239.018 56.602 239.58 77.7472 223.299ZM1216.37 1251.33C1198.53 1252.79 1173.27 1258.33 1154.19 1276.64L1158.53 1281.25C1176.29 1264.38 1200.07 1259.15 1216.87 1257.8C1237.96 1256.08 1259.3 1259.06 1280 1262.1V1255.72C1259.22 1252.59 1237.91 1249.67 1216.37 1251.33ZM1174.33 1119.17C1174.34 1131.63 1177.54 1143.89 1183.62 1154.76C1189.7 1165.63 1198.45 1174.76 1209.04 1181.26C1219.64 1187.77 1231.72 1191.44 1244.12 1191.92C1256.53 1192.4 1268.86 1189.68 1279.92 1184.01V1176.81C1269.83 1182.64 1258.39 1185.71 1246.75 1185.7C1235.11 1185.69 1223.68 1182.6 1213.6 1176.75C1203.52 1170.9 1195.16 1162.5 1189.34 1152.37C1183.52 1142.25 1180.46 1130.77 1180.46 1119.08C1180.46 1107.39 1183.52 1095.91 1189.34 1085.79C1195.16 1075.67 1203.52 1067.26 1213.6 1061.41C1223.68 1055.56 1235.11 1052.48 1246.75 1052.47C1258.39 1052.46 1269.83 1055.52 1279.92 1061.35V1054.15C1268.84 1048.48 1256.5 1045.76 1244.08 1046.25C1231.66 1046.74 1219.57 1050.42 1208.97 1056.94C1198.38 1063.47 1189.62 1072.62 1183.56 1083.51C1177.49 1094.41 1174.31 1106.68 1174.33 1119.17ZM1255.55 1327.42C1244.21 1334.51 1232.47 1341.87 1223.82 1352.73C1215.64 1362.85 1213.12 1374.1 1217.01 1382.84C1219.62 1388.67 1224.97 1393.36 1233.4 1397.19C1248.02 1403.69 1264.22 1405.74 1280 1403.09V1396.68C1265.14 1399.4 1249.81 1397.57 1236 1391.42C1229.03 1388.24 1224.8 1384.59 1222.75 1380.17C1218.44 1370.53 1226.23 1359.73 1228.72 1356.64C1236.7 1346.74 1247.48 1339.99 1258.88 1332.85C1263.84 1329.75 1268.97 1326.52 1273.78 1323.06C1275.99 1321.49 1278.04 1319.86 1280 1318.17V1309.54C1276.92 1312.6 1273.62 1315.42 1270.11 1317.97C1265.46 1321.12 1260.31 1324.27 1255.55 1327.25V1327.42ZM117.769 1453.17L114.324 1458.49C118.691 1461.56 121.976 1465.94 123.707 1471H130.4C128.364 1463.77 123.901 1457.47 117.769 1453.17ZM47.0236 1379.22C39.0769 1380.82 31.4308 1383.66 24.366 1387.65C21.0892 1389.28 17.7284 1390.97 14.3956 1392.32C9.75502 1394.2 4.92984 1395.59 0 1396.45L0 1402.87C5.75794 1401.92 11.3937 1400.33 16.8041 1398.14C20.361 1396.68 23.8339 1394.94 27.1947 1393.28C33.6603 1389.6 40.6645 1386.97 47.9478 1385.49C68.1408 1382.68 87.1575 1399.1 95.3355 1416.93L100.937 1414.25C92.0307 1394.91 71.3056 1375.7 47.0236 1379.22ZM495.358 1459.56C481.068 1455.86 467.131 1450.9 453.712 1444.74C446.206 1441.56 438.476 1438.27 430.606 1435.43C402.599 1425.36 378.541 1423.98 358.797 1431.32C340.928 1437.96 327.989 1451.18 315.61 1463.94C313.285 1466.33 310.989 1468.69 308.664 1471H317.542L320.119 1468.38C332.078 1456.1 344.429 1443.41 360.981 1437.26C379.326 1430.45 402.011 1431.83 428.478 1441.39C436.18 1444.2 443.854 1447.41 451.275 1450.56C465.031 1456.89 479.325 1461.97 493.986 1465.74C515.579 1470.66 545.435 1469.96 564.423 1453.17L560.138 1448.42C543.026 1463.63 515.327 1464.14 495.358 1459.56ZM287.967 24.2955C296.857 19.0211 305.037 12.6232 312.305 5.25843C314.07 3.54312 315.778 1.77158 317.514 3.72827e-05H308.636L307.908 0.731151C288.751 19.6839 270.267 28.4291 252.958 26.8544L252.678 30.0038L252.398 33.1532C253.911 33.1532 255.423 33.35 256.963 33.35C267.911 33.1192 278.604 29.9962 287.967 24.2955Z" fill="#F4D3BC" fill-opacity="0.16"/>
</g>
<defs>
<clipPath id="clip0_1_291">
<rect width="1280" height="1471" fill="white"/>
</clipPath>
</defs>
</svg>
